<mxfile host="Electron" modified="2024-06-11T12:29:48.461Z" agent="Mozilla/5.0 (X11; Linux x86_64) AppleWebKit/537.36 (KHTML, like Gecko) draw.io/24.5.1 Chrome/124.0.6367.207 Electron/30.0.6 Safari/537.36" etag="H0N0ZVHe8EIZmMDTVCvf" version="24.5.1" type="device">
  <diagram name="Page-1" id="1aXTQvaHOBbPSqx9FsLq">
    <mxGraphModel dx="2097" dy="1826" grid="1" gridSize="10" guides="1" tooltips="1" connect="1" arrows="1" fold="1" page="1" pageScale="1" pageWidth="850" pageHeight="1100" math="0" shadow="0">
      <root>
        <mxCell id="0" />
        <mxCell id="1" parent="0" />
        <mxCell id="ZYOzPeOD46tJgNTAeWL3-3" value="Packet name (id)" style="swimlane;fontStyle=0;childLayout=stackLayout;horizontal=1;startSize=30;horizontalStack=0;resizeParent=1;resizeParentMax=0;resizeLast=0;collapsible=1;marginBottom=0;whiteSpace=wrap;html=1;" vertex="1" parent="1">
          <mxGeometry x="-80" y="-180" width="140" height="60" as="geometry" />
        </mxCell>
        <mxCell id="ZYOzPeOD46tJgNTAeWL3-5" value="Contents" style="text;strokeColor=none;fillColor=none;align=left;verticalAlign=middle;spacingLeft=4;spacingRight=4;overflow=hidden;points=[[0,0.5],[1,0.5]];portConstraint=eastwest;rotatable=0;whiteSpace=wrap;html=1;" vertex="1" parent="ZYOzPeOD46tJgNTAeWL3-3">
          <mxGeometry y="30" width="140" height="30" as="geometry" />
        </mxCell>
        <mxCell id="ZYOzPeOD46tJgNTAeWL3-7" value="Heartbeat (0x00)" style="swimlane;fontStyle=0;childLayout=stackLayout;horizontal=1;startSize=30;horizontalStack=0;resizeParent=1;resizeParentMax=0;resizeLast=0;collapsible=1;marginBottom=0;whiteSpace=wrap;html=1;" vertex="1" parent="1">
          <mxGeometry x="-70" y="40" width="140" height="60" as="geometry" />
        </mxCell>
        <mxCell id="ZYOzPeOD46tJgNTAeWL3-80" style="edgeStyle=orthogonalEdgeStyle;rounded=0;orthogonalLoop=1;jettySize=auto;html=1;exitX=1;exitY=0.5;exitDx=0;exitDy=0;strokeColor=#FF0000;" edge="1" parent="1" source="ZYOzPeOD46tJgNTAeWL3-13" target="ZYOzPeOD46tJgNTAeWL3-75">
          <mxGeometry relative="1" as="geometry" />
        </mxCell>
        <mxCell id="ZYOzPeOD46tJgNTAeWL3-10" value="login (0x01)" style="swimlane;fontStyle=0;childLayout=stackLayout;horizontal=1;startSize=30;horizontalStack=0;resizeParent=1;resizeParentMax=0;resizeLast=0;collapsible=1;marginBottom=0;whiteSpace=wrap;html=1;" vertex="1" parent="1">
          <mxGeometry x="490" y="220" width="100" height="90" as="geometry">
            <mxRectangle x="510" y="110" width="70" height="30" as="alternateBounds" />
          </mxGeometry>
        </mxCell>
        <mxCell id="ZYOzPeOD46tJgNTAeWL3-11" value="&lt;div&gt;username&lt;/div&gt;" style="text;strokeColor=none;fillColor=none;align=left;verticalAlign=middle;spacingLeft=4;spacingRight=4;overflow=hidden;points=[[0,0.5],[1,0.5]];portConstraint=eastwest;rotatable=0;whiteSpace=wrap;html=1;" vertex="1" parent="ZYOzPeOD46tJgNTAeWL3-10">
          <mxGeometry y="30" width="100" height="30" as="geometry" />
        </mxCell>
        <mxCell id="ZYOzPeOD46tJgNTAeWL3-13" value="&lt;div&gt;password (hash)&lt;/div&gt;" style="text;strokeColor=none;fillColor=none;align=left;verticalAlign=middle;spacingLeft=4;spacingRight=4;overflow=hidden;points=[[0,0.5],[1,0.5]];portConstraint=eastwest;rotatable=0;whiteSpace=wrap;html=1;" vertex="1" parent="ZYOzPeOD46tJgNTAeWL3-10">
          <mxGeometry y="60" width="100" height="30" as="geometry" />
        </mxCell>
        <mxCell id="ZYOzPeOD46tJgNTAeWL3-15" value="Round ended (0x03)" style="swimlane;fontStyle=0;childLayout=stackLayout;horizontal=1;startSize=30;horizontalStack=0;resizeParent=1;resizeParentMax=0;resizeLast=0;collapsible=1;marginBottom=0;whiteSpace=wrap;html=1;" vertex="1" parent="1">
          <mxGeometry x="-620" y="150" width="160" height="60" as="geometry" />
        </mxCell>
        <mxCell id="ZYOzPeOD46tJgNTAeWL3-16" value="Abilities used by enemy (id)" style="text;strokeColor=none;fillColor=none;align=left;verticalAlign=middle;spacingLeft=4;spacingRight=4;overflow=hidden;points=[[0,0.5],[1,0.5]];portConstraint=eastwest;rotatable=0;whiteSpace=wrap;html=1;" vertex="1" parent="ZYOzPeOD46tJgNTAeWL3-15">
          <mxGeometry y="30" width="160" height="30" as="geometry" />
        </mxCell>
        <mxCell id="ZYOzPeOD46tJgNTAeWL3-17" value="Ability used (0x02)" style="swimlane;fontStyle=0;childLayout=stackLayout;horizontal=1;startSize=30;horizontalStack=0;resizeParent=1;resizeParentMax=0;resizeLast=0;collapsible=1;marginBottom=0;whiteSpace=wrap;html=1;" vertex="1" parent="1">
          <mxGeometry x="100" y="220" width="140" height="60" as="geometry" />
        </mxCell>
        <mxCell id="ZYOzPeOD46tJgNTAeWL3-18" value="ID" style="text;strokeColor=none;fillColor=none;align=left;verticalAlign=middle;spacingLeft=4;spacingRight=4;overflow=hidden;points=[[0,0.5],[1,0.5]];portConstraint=eastwest;rotatable=0;whiteSpace=wrap;html=1;" vertex="1" parent="ZYOzPeOD46tJgNTAeWL3-17">
          <mxGeometry y="30" width="140" height="30" as="geometry" />
        </mxCell>
        <mxCell id="ZYOzPeOD46tJgNTAeWL3-20" value="Sync (optional)" style="swimlane;fontStyle=0;childLayout=stackLayout;horizontal=1;startSize=30;horizontalStack=0;resizeParent=1;resizeParentMax=0;resizeLast=0;collapsible=1;marginBottom=0;whiteSpace=wrap;html=1;" vertex="1" parent="1">
          <mxGeometry x="630" y="55" width="160" height="120" as="geometry" />
        </mxCell>
        <mxCell id="ZYOzPeOD46tJgNTAeWL3-21" value="MP" style="text;strokeColor=none;fillColor=none;align=left;verticalAlign=middle;spacingLeft=4;spacingRight=4;overflow=hidden;points=[[0,0.5],[1,0.5]];portConstraint=eastwest;rotatable=0;whiteSpace=wrap;html=1;" vertex="1" parent="ZYOzPeOD46tJgNTAeWL3-20">
          <mxGeometry y="30" width="160" height="30" as="geometry" />
        </mxCell>
        <mxCell id="ZYOzPeOD46tJgNTAeWL3-22" value="HP" style="text;strokeColor=none;fillColor=none;align=left;verticalAlign=middle;spacingLeft=4;spacingRight=4;overflow=hidden;points=[[0,0.5],[1,0.5]];portConstraint=eastwest;rotatable=0;whiteSpace=wrap;html=1;" vertex="1" parent="ZYOzPeOD46tJgNTAeWL3-20">
          <mxGeometry y="60" width="160" height="30" as="geometry" />
        </mxCell>
        <mxCell id="ZYOzPeOD46tJgNTAeWL3-23" value="Cooldowns (id, rounds left)" style="text;strokeColor=none;fillColor=none;align=left;verticalAlign=middle;spacingLeft=4;spacingRight=4;overflow=hidden;points=[[0,0.5],[1,0.5]];portConstraint=eastwest;rotatable=0;whiteSpace=wrap;html=1;" vertex="1" parent="ZYOzPeOD46tJgNTAeWL3-20">
          <mxGeometry y="90" width="160" height="30" as="geometry" />
        </mxCell>
        <mxCell id="ZYOzPeOD46tJgNTAeWL3-24" value="Game start (0x01)" style="swimlane;fontStyle=0;childLayout=stackLayout;horizontal=1;startSize=30;horizontalStack=0;resizeParent=1;resizeParentMax=0;resizeLast=0;collapsible=1;marginBottom=0;whiteSpace=wrap;html=1;" vertex="1" parent="1">
          <mxGeometry x="-250" y="110" width="140" height="60" as="geometry" />
        </mxCell>
        <mxCell id="ZYOzPeOD46tJgNTAeWL3-25" value="Other name" style="text;strokeColor=none;fillColor=none;align=left;verticalAlign=middle;spacingLeft=4;spacingRight=4;overflow=hidden;points=[[0,0.5],[1,0.5]];portConstraint=eastwest;rotatable=0;whiteSpace=wrap;html=1;" vertex="1" parent="ZYOzPeOD46tJgNTAeWL3-24">
          <mxGeometry y="30" width="140" height="30" as="geometry" />
        </mxCell>
        <mxCell id="ZYOzPeOD46tJgNTAeWL3-26" value="Ability" style="swimlane;fontStyle=0;childLayout=stackLayout;horizontal=1;startSize=30;horizontalStack=0;resizeParent=1;resizeParentMax=0;resizeLast=0;collapsible=1;marginBottom=0;whiteSpace=wrap;html=1;" vertex="1" parent="1">
          <mxGeometry x="-340" y="500" width="140" height="120" as="geometry" />
        </mxCell>
        <mxCell id="ZYOzPeOD46tJgNTAeWL3-27" value="ID" style="text;strokeColor=none;fillColor=none;align=left;verticalAlign=middle;spacingLeft=4;spacingRight=4;overflow=hidden;points=[[0,0.5],[1,0.5]];portConstraint=eastwest;rotatable=0;whiteSpace=wrap;html=1;" vertex="1" parent="ZYOzPeOD46tJgNTAeWL3-26">
          <mxGeometry y="30" width="140" height="30" as="geometry" />
        </mxCell>
        <mxCell id="ZYOzPeOD46tJgNTAeWL3-29" value="Name" style="text;strokeColor=none;fillColor=none;align=left;verticalAlign=middle;spacingLeft=4;spacingRight=4;overflow=hidden;points=[[0,0.5],[1,0.5]];portConstraint=eastwest;rotatable=0;whiteSpace=wrap;html=1;" vertex="1" parent="ZYOzPeOD46tJgNTAeWL3-26">
          <mxGeometry y="60" width="140" height="30" as="geometry" />
        </mxCell>
        <mxCell id="ZYOzPeOD46tJgNTAeWL3-30" value="Effects (ids)" style="text;strokeColor=none;fillColor=none;align=left;verticalAlign=middle;spacingLeft=4;spacingRight=4;overflow=hidden;points=[[0,0.5],[1,0.5]];portConstraint=eastwest;rotatable=0;whiteSpace=wrap;html=1;" vertex="1" parent="ZYOzPeOD46tJgNTAeWL3-26">
          <mxGeometry y="90" width="140" height="30" as="geometry" />
        </mxCell>
        <mxCell id="ZYOzPeOD46tJgNTAeWL3-31" value="Effekt" style="swimlane;fontStyle=0;childLayout=stackLayout;horizontal=1;startSize=30;horizontalStack=0;resizeParent=1;resizeParentMax=0;resizeLast=0;collapsible=1;marginBottom=0;whiteSpace=wrap;html=1;" vertex="1" parent="1">
          <mxGeometry x="-240" y="850" width="140" height="240" as="geometry" />
        </mxCell>
        <mxCell id="ZYOzPeOD46tJgNTAeWL3-32" value="ID" style="text;strokeColor=none;fillColor=none;align=left;verticalAlign=middle;spacingLeft=4;spacingRight=4;overflow=hidden;points=[[0,0.5],[1,0.5]];portConstraint=eastwest;rotatable=0;whiteSpace=wrap;html=1;" vertex="1" parent="ZYOzPeOD46tJgNTAeWL3-31">
          <mxGeometry y="30" width="140" height="30" as="geometry" />
        </mxCell>
        <mxCell id="ZYOzPeOD46tJgNTAeWL3-33" value="Name" style="text;strokeColor=none;fillColor=none;align=left;verticalAlign=middle;spacingLeft=4;spacingRight=4;overflow=hidden;points=[[0,0.5],[1,0.5]];portConstraint=eastwest;rotatable=0;whiteSpace=wrap;html=1;" vertex="1" parent="ZYOzPeOD46tJgNTAeWL3-31">
          <mxGeometry y="60" width="140" height="30" as="geometry" />
        </mxCell>
        <mxCell id="ZYOzPeOD46tJgNTAeWL3-34" value="Value affected (MP, HP)" style="text;strokeColor=none;fillColor=none;align=left;verticalAlign=middle;spacingLeft=4;spacingRight=4;overflow=hidden;points=[[0,0.5],[1,0.5]];portConstraint=eastwest;rotatable=0;whiteSpace=wrap;html=1;" vertex="1" parent="ZYOzPeOD46tJgNTAeWL3-31">
          <mxGeometry y="90" width="140" height="30" as="geometry" />
        </mxCell>
        <mxCell id="ZYOzPeOD46tJgNTAeWL3-35" value="Time" style="text;strokeColor=none;fillColor=none;align=left;verticalAlign=middle;spacingLeft=4;spacingRight=4;overflow=hidden;points=[[0,0.5],[1,0.5]];portConstraint=eastwest;rotatable=0;whiteSpace=wrap;html=1;" vertex="1" parent="ZYOzPeOD46tJgNTAeWL3-31">
          <mxGeometry y="120" width="140" height="30" as="geometry" />
        </mxCell>
        <mxCell id="ZYOzPeOD46tJgNTAeWL3-36" value="Min" style="text;strokeColor=none;fillColor=none;align=left;verticalAlign=middle;spacingLeft=4;spacingRight=4;overflow=hidden;points=[[0,0.5],[1,0.5]];portConstraint=eastwest;rotatable=0;whiteSpace=wrap;html=1;" vertex="1" parent="ZYOzPeOD46tJgNTAeWL3-31">
          <mxGeometry y="150" width="140" height="30" as="geometry" />
        </mxCell>
        <mxCell id="ZYOzPeOD46tJgNTAeWL3-37" value="Max" style="text;strokeColor=none;fillColor=none;align=left;verticalAlign=middle;spacingLeft=4;spacingRight=4;overflow=hidden;points=[[0,0.5],[1,0.5]];portConstraint=eastwest;rotatable=0;whiteSpace=wrap;html=1;" vertex="1" parent="ZYOzPeOD46tJgNTAeWL3-31">
          <mxGeometry y="180" width="140" height="30" as="geometry" />
        </mxCell>
        <mxCell id="ZYOzPeOD46tJgNTAeWL3-38" value="Relative?" style="text;strokeColor=none;fillColor=none;align=left;verticalAlign=middle;spacingLeft=4;spacingRight=4;overflow=hidden;points=[[0,0.5],[1,0.5]];portConstraint=eastwest;rotatable=0;whiteSpace=wrap;html=1;" vertex="1" parent="ZYOzPeOD46tJgNTAeWL3-31">
          <mxGeometry y="210" width="140" height="30" as="geometry" />
        </mxCell>
        <mxCell id="ZYOzPeOD46tJgNTAeWL3-39" value="Game End (0x02)" style="swimlane;fontStyle=0;childLayout=stackLayout;horizontal=1;startSize=30;horizontalStack=0;resizeParent=1;resizeParentMax=0;resizeLast=0;collapsible=1;marginBottom=0;whiteSpace=wrap;html=1;" vertex="1" parent="1">
          <mxGeometry x="-670" y="235" width="140" height="60" as="geometry" />
        </mxCell>
        <mxCell id="ZYOzPeOD46tJgNTAeWL3-40" value="Victory?" style="text;strokeColor=none;fillColor=none;align=left;verticalAlign=middle;spacingLeft=4;spacingRight=4;overflow=hidden;points=[[0,0.5],[1,0.5]];portConstraint=eastwest;rotatable=0;whiteSpace=wrap;html=1;" vertex="1" parent="ZYOzPeOD46tJgNTAeWL3-39">
          <mxGeometry y="30" width="140" height="30" as="geometry" />
        </mxCell>
        <mxCell id="ZYOzPeOD46tJgNTAeWL3-41" value="" style="endArrow=none;html=1;rounded=0;strokeWidth=20;curved=0;strokeColor=#0000FF;" edge="1" parent="1">
          <mxGeometry width="50" height="50" relative="1" as="geometry">
            <mxPoint x="30" y="350" as="sourcePoint" />
            <mxPoint x="30" y="150" as="targetPoint" />
          </mxGeometry>
        </mxCell>
        <mxCell id="ZYOzPeOD46tJgNTAeWL3-42" value="&lt;h1&gt;From Server&lt;/h1&gt;" style="text;html=1;align=center;verticalAlign=middle;whiteSpace=wrap;rounded=0;" vertex="1" parent="1">
          <mxGeometry x="-580" y="55" width="150" height="35" as="geometry" />
        </mxCell>
        <mxCell id="ZYOzPeOD46tJgNTAeWL3-43" value="&lt;h1&gt;From Client&lt;/h1&gt;" style="text;html=1;align=center;verticalAlign=middle;whiteSpace=wrap;rounded=0;" vertex="1" parent="1">
          <mxGeometry x="340" y="55" width="150" height="35" as="geometry" />
        </mxCell>
        <mxCell id="ZYOzPeOD46tJgNTAeWL3-44" value="" style="endArrow=none;html=1;rounded=0;strokeWidth=20;curved=0;fontColor=#0000ff;labelBackgroundColor=#0000FF;strokeColor=#0000FF;" edge="1" parent="1">
          <mxGeometry width="50" height="50" relative="1" as="geometry">
            <mxPoint x="820" y="360" as="sourcePoint" />
            <mxPoint x="-830" y="360" as="targetPoint" />
          </mxGeometry>
        </mxCell>
        <mxCell id="ZYOzPeOD46tJgNTAeWL3-45" value="&lt;h1&gt;Data formats&lt;/h1&gt;" style="text;html=1;align=center;verticalAlign=middle;whiteSpace=wrap;rounded=0;" vertex="1" parent="1">
          <mxGeometry x="-75" y="385" width="150" height="35" as="geometry" />
        </mxCell>
        <mxCell id="ZYOzPeOD46tJgNTAeWL3-46" value="Abilities (0x04)" style="swimlane;fontStyle=0;childLayout=stackLayout;horizontal=1;startSize=30;horizontalStack=0;resizeParent=1;resizeParentMax=0;resizeLast=0;collapsible=1;marginBottom=0;whiteSpace=wrap;html=1;" vertex="1" parent="1">
          <mxGeometry x="-470" y="260" width="140" height="60" as="geometry" />
        </mxCell>
        <mxCell id="ZYOzPeOD46tJgNTAeWL3-47" value="Ability&amp;nbsp;" style="text;strokeColor=none;fillColor=none;align=left;verticalAlign=middle;spacingLeft=4;spacingRight=4;overflow=hidden;points=[[0,0.5],[1,0.5]];portConstraint=eastwest;rotatable=0;whiteSpace=wrap;html=1;" vertex="1" parent="ZYOzPeOD46tJgNTAeWL3-46">
          <mxGeometry y="30" width="140" height="30" as="geometry" />
        </mxCell>
        <mxCell id="ZYOzPeOD46tJgNTAeWL3-53" style="edgeStyle=orthogonalEdgeStyle;rounded=0;orthogonalLoop=1;jettySize=auto;html=1;exitX=1;exitY=0.5;exitDx=0;exitDy=0;" edge="1" parent="1" source="ZYOzPeOD46tJgNTAeWL3-47" target="ZYOzPeOD46tJgNTAeWL3-26">
          <mxGeometry relative="1" as="geometry" />
        </mxCell>
        <mxCell id="ZYOzPeOD46tJgNTAeWL3-55" value="Player finishede round (0x03)" style="swimlane;fontStyle=0;childLayout=stackLayout;horizontal=1;startSize=30;horizontalStack=0;resizeParent=1;resizeParentMax=0;resizeLast=0;collapsible=1;marginBottom=0;whiteSpace=wrap;html=1;" vertex="1" parent="1">
          <mxGeometry x="300" y="220" width="140" height="60" as="geometry" />
        </mxCell>
        <mxCell id="ZYOzPeOD46tJgNTAeWL3-57" value="Int" style="swimlane;fontStyle=0;childLayout=stackLayout;horizontal=1;startSize=30;horizontalStack=0;resizeParent=1;resizeParentMax=0;resizeLast=0;collapsible=1;marginBottom=0;whiteSpace=wrap;html=1;" vertex="1" parent="1">
          <mxGeometry x="10" y="750" width="140" height="150" as="geometry" />
        </mxCell>
        <mxCell id="ZYOzPeOD46tJgNTAeWL3-58" value="&amp;gt;&amp;gt; 24" style="text;strokeColor=none;fillColor=none;align=left;verticalAlign=middle;spacingLeft=4;spacingRight=4;overflow=hidden;points=[[0,0.5],[1,0.5]];portConstraint=eastwest;rotatable=0;whiteSpace=wrap;html=1;" vertex="1" parent="ZYOzPeOD46tJgNTAeWL3-57">
          <mxGeometry y="30" width="140" height="30" as="geometry" />
        </mxCell>
        <mxCell id="ZYOzPeOD46tJgNTAeWL3-59" value="&amp;gt;&amp;gt; 16" style="text;strokeColor=none;fillColor=none;align=left;verticalAlign=middle;spacingLeft=4;spacingRight=4;overflow=hidden;points=[[0,0.5],[1,0.5]];portConstraint=eastwest;rotatable=0;whiteSpace=wrap;html=1;" vertex="1" parent="ZYOzPeOD46tJgNTAeWL3-57">
          <mxGeometry y="60" width="140" height="30" as="geometry" />
        </mxCell>
        <mxCell id="ZYOzPeOD46tJgNTAeWL3-60" value="&amp;gt;&amp;gt; 8" style="text;strokeColor=none;fillColor=none;align=left;verticalAlign=middle;spacingLeft=4;spacingRight=4;overflow=hidden;points=[[0,0.5],[1,0.5]];portConstraint=eastwest;rotatable=0;whiteSpace=wrap;html=1;" vertex="1" parent="ZYOzPeOD46tJgNTAeWL3-57">
          <mxGeometry y="90" width="140" height="30" as="geometry" />
        </mxCell>
        <mxCell id="ZYOzPeOD46tJgNTAeWL3-61" value="&amp;gt;&amp;gt; 0" style="text;strokeColor=none;fillColor=none;align=left;verticalAlign=middle;spacingLeft=4;spacingRight=4;overflow=hidden;points=[[0,0.5],[1,0.5]];portConstraint=eastwest;rotatable=0;whiteSpace=wrap;html=1;" vertex="1" parent="ZYOzPeOD46tJgNTAeWL3-57">
          <mxGeometry y="120" width="140" height="30" as="geometry" />
        </mxCell>
        <mxCell id="ZYOzPeOD46tJgNTAeWL3-64" value="float" style="swimlane;fontStyle=0;childLayout=stackLayout;horizontal=1;startSize=30;horizontalStack=0;resizeParent=1;resizeParentMax=0;resizeLast=0;collapsible=1;marginBottom=0;whiteSpace=wrap;html=1;" vertex="1" parent="1">
          <mxGeometry x="300" y="730" width="140" height="60" as="geometry" />
        </mxCell>
        <mxCell id="ZYOzPeOD46tJgNTAeWL3-65" value="Int byte representation" style="text;strokeColor=none;fillColor=none;align=left;verticalAlign=middle;spacingLeft=4;spacingRight=4;overflow=hidden;points=[[0,0.5],[1,0.5]];portConstraint=eastwest;rotatable=0;whiteSpace=wrap;html=1;" vertex="1" parent="ZYOzPeOD46tJgNTAeWL3-64">
          <mxGeometry y="30" width="140" height="30" as="geometry" />
        </mxCell>
        <mxCell id="ZYOzPeOD46tJgNTAeWL3-69" style="edgeStyle=orthogonalEdgeStyle;rounded=0;orthogonalLoop=1;jettySize=auto;html=1;strokeColor=#00FF00;" edge="1" parent="1" source="ZYOzPeOD46tJgNTAeWL3-65" target="ZYOzPeOD46tJgNTAeWL3-57">
          <mxGeometry relative="1" as="geometry" />
        </mxCell>
        <mxCell id="ZYOzPeOD46tJgNTAeWL3-75" value="String" style="swimlane;fontStyle=0;childLayout=stackLayout;horizontal=1;startSize=30;horizontalStack=0;resizeParent=1;resizeParentMax=0;resizeLast=0;collapsible=1;marginBottom=0;whiteSpace=wrap;html=1;" vertex="1" parent="1">
          <mxGeometry x="550" y="840" width="140" height="90" as="geometry" />
        </mxCell>
        <mxCell id="ZYOzPeOD46tJgNTAeWL3-76" value="length" style="text;strokeColor=none;fillColor=none;align=left;verticalAlign=middle;spacingLeft=4;spacingRight=4;overflow=hidden;points=[[0,0.5],[1,0.5]];portConstraint=eastwest;rotatable=0;whiteSpace=wrap;html=1;" vertex="1" parent="ZYOzPeOD46tJgNTAeWL3-75">
          <mxGeometry y="30" width="140" height="30" as="geometry" />
        </mxCell>
        <mxCell id="ZYOzPeOD46tJgNTAeWL3-78" value="UTF-8 encoded&amp;nbsp;" style="text;strokeColor=none;fillColor=none;align=left;verticalAlign=middle;spacingLeft=4;spacingRight=4;overflow=hidden;points=[[0,0.5],[1,0.5]];portConstraint=eastwest;rotatable=0;whiteSpace=wrap;html=1;" vertex="1" parent="ZYOzPeOD46tJgNTAeWL3-75">
          <mxGeometry y="60" width="140" height="30" as="geometry" />
        </mxCell>
        <mxCell id="ZYOzPeOD46tJgNTAeWL3-77" style="edgeStyle=orthogonalEdgeStyle;rounded=0;orthogonalLoop=1;jettySize=auto;html=1;strokeColor=#00FF00;" edge="1" parent="1" source="ZYOzPeOD46tJgNTAeWL3-76" target="ZYOzPeOD46tJgNTAeWL3-57">
          <mxGeometry relative="1" as="geometry" />
        </mxCell>
        <mxCell id="ZYOzPeOD46tJgNTAeWL3-79" style="edgeStyle=orthogonalEdgeStyle;rounded=0;orthogonalLoop=1;jettySize=auto;html=1;strokeColor=#00FF00;" edge="1" parent="1" source="ZYOzPeOD46tJgNTAeWL3-18" target="ZYOzPeOD46tJgNTAeWL3-57">
          <mxGeometry relative="1" as="geometry" />
        </mxCell>
        <mxCell id="ZYOzPeOD46tJgNTAeWL3-81" style="edgeStyle=orthogonalEdgeStyle;rounded=0;orthogonalLoop=1;jettySize=auto;html=1;exitX=1;exitY=0.5;exitDx=0;exitDy=0;strokeColor=#FF0000;" edge="1" parent="1" source="ZYOzPeOD46tJgNTAeWL3-11" target="ZYOzPeOD46tJgNTAeWL3-75">
          <mxGeometry relative="1" as="geometry" />
        </mxCell>
        <mxCell id="ZYOzPeOD46tJgNTAeWL3-82" value="boolean" style="swimlane;fontStyle=0;childLayout=stackLayout;horizontal=1;startSize=30;horizontalStack=0;resizeParent=1;resizeParentMax=0;resizeLast=0;collapsible=1;marginBottom=0;whiteSpace=wrap;html=1;" vertex="1" parent="1">
          <mxGeometry x="-585" y="680" width="155" height="60" as="geometry" />
        </mxCell>
        <mxCell id="ZYOzPeOD46tJgNTAeWL3-83" value="0x00 (false) or 0x01 (true)" style="text;strokeColor=none;fillColor=none;align=left;verticalAlign=middle;spacingLeft=4;spacingRight=4;overflow=hidden;points=[[0,0.5],[1,0.5]];portConstraint=eastwest;rotatable=0;whiteSpace=wrap;html=1;" vertex="1" parent="ZYOzPeOD46tJgNTAeWL3-82">
          <mxGeometry y="30" width="155" height="30" as="geometry" />
        </mxCell>
        <mxCell id="ZYOzPeOD46tJgNTAeWL3-86" style="edgeStyle=orthogonalEdgeStyle;rounded=0;orthogonalLoop=1;jettySize=auto;html=1;strokeColor=#FF0000;" edge="1" parent="1" source="ZYOzPeOD46tJgNTAeWL3-29" target="ZYOzPeOD46tJgNTAeWL3-75">
          <mxGeometry relative="1" as="geometry" />
        </mxCell>
        <mxCell id="ZYOzPeOD46tJgNTAeWL3-87" style="edgeStyle=orthogonalEdgeStyle;rounded=0;orthogonalLoop=1;jettySize=auto;html=1;exitX=1;exitY=0.5;exitDx=0;exitDy=0;strokeColor=#00FF00;" edge="1" parent="1" source="ZYOzPeOD46tJgNTAeWL3-32" target="ZYOzPeOD46tJgNTAeWL3-57">
          <mxGeometry relative="1" as="geometry" />
        </mxCell>
        <mxCell id="ZYOzPeOD46tJgNTAeWL3-88" style="edgeStyle=orthogonalEdgeStyle;rounded=0;orthogonalLoop=1;jettySize=auto;html=1;exitX=1;exitY=0.5;exitDx=0;exitDy=0;strokeColor=#FF0000;" edge="1" parent="1" source="ZYOzPeOD46tJgNTAeWL3-33" target="ZYOzPeOD46tJgNTAeWL3-75">
          <mxGeometry relative="1" as="geometry" />
        </mxCell>
        <mxCell id="ZYOzPeOD46tJgNTAeWL3-90" style="edgeStyle=orthogonalEdgeStyle;rounded=0;orthogonalLoop=1;jettySize=auto;html=1;exitX=1;exitY=0.5;exitDx=0;exitDy=0;strokeColor=#00FF00;" edge="1" parent="1" source="ZYOzPeOD46tJgNTAeWL3-35" target="ZYOzPeOD46tJgNTAeWL3-57">
          <mxGeometry relative="1" as="geometry" />
        </mxCell>
        <mxCell id="ZYOzPeOD46tJgNTAeWL3-91" style="edgeStyle=orthogonalEdgeStyle;rounded=0;orthogonalLoop=1;jettySize=auto;html=1;exitX=1;exitY=0.5;exitDx=0;exitDy=0;strokeColor=#FF8000;" edge="1" parent="1" source="ZYOzPeOD46tJgNTAeWL3-36" target="ZYOzPeOD46tJgNTAeWL3-64">
          <mxGeometry relative="1" as="geometry" />
        </mxCell>
        <mxCell id="ZYOzPeOD46tJgNTAeWL3-92" style="edgeStyle=orthogonalEdgeStyle;rounded=0;orthogonalLoop=1;jettySize=auto;html=1;exitX=1;exitY=0.5;exitDx=0;exitDy=0;strokeColor=#FF8000;" edge="1" parent="1" source="ZYOzPeOD46tJgNTAeWL3-37" target="ZYOzPeOD46tJgNTAeWL3-64">
          <mxGeometry relative="1" as="geometry" />
        </mxCell>
        <mxCell id="ZYOzPeOD46tJgNTAeWL3-93" style="edgeStyle=orthogonalEdgeStyle;rounded=0;orthogonalLoop=1;jettySize=auto;html=1;strokeColor=#FFFF00;" edge="1" parent="1" source="ZYOzPeOD46tJgNTAeWL3-38" target="ZYOzPeOD46tJgNTAeWL3-82">
          <mxGeometry relative="1" as="geometry" />
        </mxCell>
        <mxCell id="ZYOzPeOD46tJgNTAeWL3-94" style="edgeStyle=orthogonalEdgeStyle;rounded=0;orthogonalLoop=1;jettySize=auto;html=1;exitX=1;exitY=0.5;exitDx=0;exitDy=0;strokeColor=#00FF00;" edge="1" parent="1" source="ZYOzPeOD46tJgNTAeWL3-16" target="ZYOzPeOD46tJgNTAeWL3-57">
          <mxGeometry relative="1" as="geometry" />
        </mxCell>
        <mxCell id="ZYOzPeOD46tJgNTAeWL3-95" style="edgeStyle=orthogonalEdgeStyle;rounded=0;orthogonalLoop=1;jettySize=auto;html=1;strokeColor=#FFFF00;" edge="1" parent="1" source="ZYOzPeOD46tJgNTAeWL3-40" target="ZYOzPeOD46tJgNTAeWL3-82">
          <mxGeometry relative="1" as="geometry" />
        </mxCell>
        <mxCell id="ZYOzPeOD46tJgNTAeWL3-96" style="edgeStyle=orthogonalEdgeStyle;rounded=0;orthogonalLoop=1;jettySize=auto;html=1;strokeColor=#FF0000;" edge="1" parent="1" source="ZYOzPeOD46tJgNTAeWL3-25" target="ZYOzPeOD46tJgNTAeWL3-75">
          <mxGeometry relative="1" as="geometry" />
        </mxCell>
        <mxCell id="ZYOzPeOD46tJgNTAeWL3-97" style="edgeStyle=orthogonalEdgeStyle;rounded=0;orthogonalLoop=1;jettySize=auto;html=1;strokeColor=#00FF00;" edge="1" parent="1" source="ZYOzPeOD46tJgNTAeWL3-27" target="ZYOzPeOD46tJgNTAeWL3-57">
          <mxGeometry relative="1" as="geometry" />
        </mxCell>
        <mxCell id="ZYOzPeOD46tJgNTAeWL3-98" style="edgeStyle=orthogonalEdgeStyle;rounded=0;orthogonalLoop=1;jettySize=auto;html=1;strokeColor=#00FF00;" edge="1" parent="1" source="ZYOzPeOD46tJgNTAeWL3-34" target="ZYOzPeOD46tJgNTAeWL3-57">
          <mxGeometry relative="1" as="geometry" />
        </mxCell>
        <mxCell id="ZYOzPeOD46tJgNTAeWL3-101" style="edgeStyle=orthogonalEdgeStyle;rounded=0;orthogonalLoop=1;jettySize=auto;html=1;exitX=0;exitY=0.5;exitDx=0;exitDy=0;" edge="1" parent="1" source="ZYOzPeOD46tJgNTAeWL3-100" target="ZYOzPeOD46tJgNTAeWL3-31">
          <mxGeometry relative="1" as="geometry" />
        </mxCell>
        <mxCell id="ZYOzPeOD46tJgNTAeWL3-99" value="Effects (0x05)" style="swimlane;fontStyle=0;childLayout=stackLayout;horizontal=1;startSize=30;horizontalStack=0;resizeParent=1;resizeParentMax=0;resizeLast=0;collapsible=1;marginBottom=0;whiteSpace=wrap;html=1;" vertex="1" parent="1">
          <mxGeometry x="-150" y="260" width="140" height="60" as="geometry" />
        </mxCell>
        <mxCell id="ZYOzPeOD46tJgNTAeWL3-100" value="Effects" style="text;strokeColor=none;fillColor=none;align=left;verticalAlign=middle;spacingLeft=4;spacingRight=4;overflow=hidden;points=[[0,0.5],[1,0.5]];portConstraint=eastwest;rotatable=0;whiteSpace=wrap;html=1;" vertex="1" parent="ZYOzPeOD46tJgNTAeWL3-99">
          <mxGeometry y="30" width="140" height="30" as="geometry" />
        </mxCell>
        <mxCell id="ZYOzPeOD46tJgNTAeWL3-102" style="edgeStyle=orthogonalEdgeStyle;rounded=0;orthogonalLoop=1;jettySize=auto;html=1;strokeColor=#00FF00;" edge="1" parent="1" source="ZYOzPeOD46tJgNTAeWL3-30" target="ZYOzPeOD46tJgNTAeWL3-57">
          <mxGeometry relative="1" as="geometry" />
        </mxCell>
        <mxCell id="ZYOzPeOD46tJgNTAeWL3-103" value="Error&amp;nbsp;(0xFF)" style="swimlane;fontStyle=0;childLayout=stackLayout;horizontal=1;startSize=30;horizontalStack=0;resizeParent=1;resizeParentMax=0;resizeLast=0;collapsible=1;marginBottom=0;whiteSpace=wrap;html=1;" vertex="1" parent="1">
          <mxGeometry x="-80" y="-60" width="160" height="60" as="geometry" />
        </mxCell>
        <mxCell id="ZYOzPeOD46tJgNTAeWL3-104" value="ID: int" style="text;strokeColor=none;fillColor=none;align=left;verticalAlign=middle;spacingLeft=4;spacingRight=4;overflow=hidden;points=[[0,0.5],[1,0.5]];portConstraint=eastwest;rotatable=0;whiteSpace=wrap;html=1;" vertex="1" parent="ZYOzPeOD46tJgNTAeWL3-103">
          <mxGeometry y="30" width="160" height="30" as="geometry" />
        </mxCell>
      </root>
    </mxGraphModel>
  </diagram>
</mxfile>
